<svg xmlns="http://www.w3.org/2000/svg" width="30" height="30" viewBox="0 0 30 30">
  <defs>
    <style>
      .cls-1 {
        fill: #d7d7d7;
        fill-rule: evenodd;
      }
    </style>
  </defs>
  <path id="phone22.svg_" data-name="phone22.svg " class="cls-1" d="M608,149.89l-1.349-1.351,2.862-2.865,1.349,1.35Zm3.422-2.866a0.4,0.4,0,0,0-.56,0l-1.349-1.35a2.358,2.358,0,0,1,3.258,0Zm1.908,12.417a3.664,3.664,0,0,1,0-5.171l1.349,1.35a1.75,1.75,0,0,0,0,2.47Zm1.349-3.821-1.349-1.35,2.326-2.329c0.016-.018.032-0.036,0.049-0.052a0.406,0.406,0,0,0,0-.572,0.71,0.71,0,0,1-.059-0.064l-4.224-4.229,1.349-1.35,4.294,4.3a0.854,0.854,0,0,1,.08.091,2.317,2.317,0,0,1-.012,3.094c-0.021.026-.044,0.051-0.068,0.076Zm-2.5,12.207c-4.435-4.515-6.13-8.633-6.77-11.293-0.82-3.406-.356-6.395,1.243-8L608,149.89c-1.108,1.109-1.39,3.483-.737,6.2a23.4,23.4,0,0,0,6.276,10.4Zm4.771-4.764-3.619-3.622,1.349-1.351,3.62,3.622Zm14.507,10.306-1.349-1.351,2.863-2.865,1.349,1.35Zm2.863-2.866-1.349-1.35a0.4,0.4,0,0,0,0-.56l1.349-1.35A2.306,2.306,0,0,1,634.318,170.5Zm-11.171-2.751a3.639,3.639,0,0,1-2.583-1.069l1.349-1.351a1.746,1.746,0,0,0,2.468,0l1.349,1.351A3.638,3.638,0,0,1,623.147,167.752Zm9.822,0.841-4.225-4.228c-0.022-.019-0.044-0.038-0.064-0.059a0.4,0.4,0,0,0-.571,0l-0.052.049-2.327,2.328-1.349-1.351,2.385-2.388c0.025-.024.05-0.047,0.076-0.068a2.365,2.365,0,0,1,3.092-.011,0.96,0.96,0,0,1,.09.079l4.294,4.3Zm-6.366,6.4c-3.866,0-9.165-1.983-14.417-7.152l1.338-1.362a23.354,23.354,0,0,0,10.391,6.281c2.712,0.655,5.083.373,6.191-.737l1.349,1.351A6.8,6.8,0,0,1,626.6,174.988Zm-6.039-8.305-3.619-3.623,1.349-1.35,3.619,3.622Zm10.895,4.778-5.726-5.73,1.35-1.351,5.725,5.731Zm-17.176-17.192-5.725-5.73,1.349-1.351,5.725,5.731Zm13.079,6.011A7.641,7.641,0,1,1,635,152.639,7.646,7.646,0,0,1,627.362,160.28Zm0-13.372a5.731,5.731,0,1,0,5.726,5.731A5.734,5.734,0,0,0,627.362,146.908Zm-0.954,8.992-2.583-2.586,1.349-1.35,1.234,1.235,3.142-3.145,1.349,1.35Z" transform="translate(-605 -145)"/>
</svg>
