<svg width="32" height="32" viewBox="0 0 32 32" fill="none" xmlns="http://www.w3.org/2000/svg">
<rect width="32" height="32" rx="16" fill="#ADACAC"/>
<path d="M15.5227 9.73011C16.0597 9.73437 16.5966 9.83665 17.1335 10.0369C17.6705 10.2372 18.1605 10.5696 18.6037 11.0341C19.0469 11.4943 19.4027 12.1229 19.6712 12.9197C19.9396 13.7166 20.0739 14.7159 20.0739 15.9176C20.0739 17.081 19.9631 18.1143 19.7415 19.0178C19.5241 19.9169 19.2088 20.6754 18.7955 21.2933C18.3864 21.9112 17.8878 22.38 17.2997 22.6996C16.7159 23.0192 16.0554 23.179 15.3182 23.179C14.5852 23.179 13.9311 23.0341 13.3558 22.7443C12.7848 22.4503 12.3161 22.0433 11.9496 21.5234C11.5874 20.9993 11.3551 20.392 11.2528 19.7017H12.8125C12.9531 20.3026 13.2322 20.799 13.6499 21.1911C14.0717 21.5788 14.6278 21.7727 15.3182 21.7727C16.3281 21.7727 17.125 21.3317 17.7088 20.4496C18.2969 19.5675 18.5909 18.321 18.5909 16.7102H18.4886C18.25 17.0682 17.9666 17.3771 17.6385 17.6371C17.3104 17.897 16.946 18.0973 16.5455 18.2379C16.1449 18.3786 15.7188 18.4489 15.267 18.4489C14.517 18.4489 13.8288 18.2635 13.2024 17.8928C12.5803 17.5178 12.0817 17.0043 11.7067 16.3523C11.3359 15.696 11.1506 14.946 11.1506 14.1023C11.1506 13.3011 11.3295 12.5682 11.6875 11.9034C12.0497 11.2344 12.5568 10.7017 13.2088 10.3054C13.8651 9.90909 14.6364 9.71733 15.5227 9.73011ZM15.5227 11.1364C14.9858 11.1364 14.5021 11.2706 14.0717 11.5391C13.6456 11.8033 13.3068 12.1612 13.0554 12.6129C12.8082 13.0604 12.6847 13.5568 12.6847 14.1023C12.6847 14.6477 12.804 15.1442 13.0426 15.5916C13.2855 16.0348 13.6158 16.3885 14.0334 16.6527C14.4553 16.9126 14.9347 17.0426 15.4716 17.0426C15.8764 17.0426 16.2536 16.9638 16.603 16.8061C16.9524 16.6442 17.2571 16.4247 17.517 16.1477C17.7813 15.8665 17.9879 15.549 18.1371 15.1953C18.2862 14.8374 18.3608 14.4645 18.3608 14.0767C18.3608 13.5653 18.2372 13.0859 17.9901 12.6385C17.7472 12.1911 17.4105 11.8288 16.9801 11.5518C16.554 11.2749 16.0682 11.1364 15.5227 11.1364Z" fill="white"/>
</svg>
