<svg width="32" height="32" viewBox="0 0 32 32" fill="none" xmlns="http://www.w3.org/2000/svg">
<rect width="32" height="32" rx="16" fill="#F4B230"/>
<path d="M15.7017 23.179C15.1648 23.1705 14.6278 23.0682 14.0909 22.8722C13.554 22.6761 13.0639 22.3459 12.6207 21.8814C12.1776 21.4126 11.8217 20.7798 11.5533 19.983C11.2848 19.1818 11.1506 18.1761 11.1506 16.9659C11.1506 15.8068 11.2592 14.7798 11.4766 13.8849C11.6939 12.9858 12.0092 12.2294 12.4226 11.6158C12.8359 10.9979 13.3345 10.5291 13.9183 10.2095C14.5064 9.88991 15.169 9.73011 15.9062 9.73011C16.6392 9.73011 17.2912 9.87713 17.8622 10.1712C18.4375 10.4609 18.9063 10.8658 19.2685 11.3857C19.6307 11.9055 19.8651 12.5043 19.9716 13.1818H18.4119C18.267 12.5937 17.9858 12.1058 17.5682 11.718C17.1506 11.3303 16.5966 11.1364 15.9062 11.1364C14.892 11.1364 14.093 11.5774 13.5092 12.4595C12.9297 13.3416 12.6378 14.5795 12.6335 16.1733H12.7358C12.9744 15.8111 13.2578 15.5021 13.5859 15.2464C13.9183 14.9865 14.2848 14.7862 14.6854 14.6456C15.0859 14.505 15.5099 14.4347 15.9574 14.4347C16.7074 14.4347 17.3935 14.6222 18.0156 14.9972C18.6378 15.3679 19.1364 15.8814 19.5114 16.5376C19.8864 17.1896 20.0739 17.9375 20.0739 18.7812C20.0739 19.5909 19.8928 20.3324 19.5305 21.0057C19.1683 21.6747 18.6591 22.2074 18.0028 22.6037C17.3509 22.9957 16.5838 23.1875 15.7017 23.179ZM15.7017 21.7727C16.2386 21.7727 16.7202 21.6385 17.1463 21.37C17.5767 21.1016 17.9155 20.7415 18.1626 20.2898C18.4141 19.8381 18.5398 19.3352 18.5398 18.7812C18.5398 18.2401 18.4183 17.7479 18.1754 17.3047C17.9368 16.8572 17.6065 16.5014 17.1847 16.2372C16.767 15.973 16.2898 15.8409 15.7528 15.8409C15.348 15.8409 14.9709 15.9219 14.6214 16.0838C14.272 16.2415 13.9652 16.4588 13.701 16.7358C13.4411 17.0128 13.2365 17.3303 13.0874 17.6882C12.9382 18.0419 12.8636 18.4148 12.8636 18.8068C12.8636 19.3267 12.9851 19.8125 13.228 20.2642C13.4751 20.7159 13.8118 21.0803 14.2379 21.3572C14.6683 21.6342 15.1562 21.7727 15.7017 21.7727Z" fill="white"/>
</svg>
