<svg width="32" height="32" viewBox="0 0 32 32" fill="none" xmlns="http://www.w3.org/2000/svg">
<rect width="32" height="32" rx="16" fill="#D68AB1"/>
<path d="M12.9574 9.90909V23H11.3722V11.571H11.2955L8.09943 13.6932V12.0824L11.3722 9.90909H12.9574ZM20.8132 23.179C20.0632 23.179 19.3878 23.0298 18.7869 22.7315C18.1861 22.4332 17.7045 22.0241 17.3423 21.5043C16.9801 20.9844 16.782 20.392 16.7479 19.7273H18.282C18.3416 20.3196 18.6101 20.8097 19.0874 21.1974C19.5689 21.581 20.1442 21.7727 20.8132 21.7727C21.3501 21.7727 21.8274 21.647 22.245 21.3956C22.6669 21.1442 22.9972 20.799 23.2358 20.3601C23.4787 19.9169 23.6001 19.4162 23.6001 18.858C23.6001 18.2869 23.4744 17.7777 23.223 17.3303C22.9759 16.8786 22.6349 16.5227 22.2003 16.2628C21.7656 16.0028 21.2692 15.8707 20.7109 15.8665C20.3104 15.8622 19.8991 15.924 19.4773 16.0518C19.0554 16.1754 18.7081 16.3352 18.4354 16.5312L16.9524 16.3523L17.745 9.90909H24.5462V11.3153H19.0746L18.6143 15.1761H18.6911C18.9595 14.9631 19.2962 14.7862 19.701 14.6456C20.1058 14.505 20.5277 14.4347 20.9666 14.4347C21.7678 14.4347 22.4815 14.6264 23.108 15.0099C23.7386 15.3892 24.233 15.9091 24.5909 16.5696C24.9531 17.2301 25.1342 17.9844 25.1342 18.8324C25.1342 19.6676 24.9467 20.4134 24.5717 21.0696C24.201 21.7216 23.6896 22.2372 23.0376 22.6165C22.3857 22.9915 21.6442 23.179 20.8132 23.179Z" fill="white"/>
</svg>
