<svg width="32" height="32" viewBox="0 0 32 32" fill="none" xmlns="http://www.w3.org/2000/svg">
<rect width="32" height="32" rx="16" fill="#FCDD1C"/>
<path d="M15.5483 23.179C14.6705 23.179 13.8949 23.0234 13.2216 22.7124C12.5526 22.397 12.0305 21.9645 11.6555 21.4148C11.2805 20.8608 11.0952 20.2301 11.0994 19.5227C11.0952 18.9687 11.2038 18.4574 11.4254 17.9886C11.647 17.5156 11.9496 17.1214 12.3331 16.8061C12.7209 16.4865 13.1534 16.2841 13.6307 16.1989V16.1222C13.0043 15.9602 12.5057 15.6087 12.1349 15.0675C11.7642 14.522 11.581 13.902 11.5852 13.2074C11.581 12.5426 11.7493 11.9482 12.0902 11.424C12.4311 10.8999 12.8999 10.4865 13.4964 10.1839C14.0973 9.88139 14.7813 9.73011 15.5483 9.73011C16.3068 9.73011 16.9844 9.88139 17.581 10.1839C18.1776 10.4865 18.6463 10.8999 18.9872 11.424C19.3324 11.9482 19.5071 12.5426 19.5114 13.2074C19.5071 13.902 19.3175 14.522 18.9425 15.0675C18.5717 15.6087 18.0795 15.9602 17.4659 16.1222V16.1989C17.9389 16.2841 18.3651 16.4865 18.7443 16.8061C19.1236 17.1214 19.4261 17.5156 19.652 17.9886C19.8778 18.4574 19.9929 18.9687 19.9972 19.5227C19.9929 20.2301 19.8011 20.8608 19.4219 21.4148C19.0469 21.9645 18.5249 22.397 17.8558 22.7124C17.1911 23.0234 16.4219 23.179 15.5483 23.179ZM15.5483 21.7727C16.1406 21.7727 16.652 21.6768 17.0824 21.4851C17.5128 21.2933 17.8452 21.0227 18.0795 20.6733C18.3139 20.3239 18.4332 19.9148 18.4375 19.446C18.4332 18.9517 18.3054 18.5149 18.054 18.1357C17.8026 17.7564 17.4595 17.4581 17.0249 17.2408C16.5945 17.0234 16.1023 16.9148 15.5483 16.9148C14.9901 16.9148 14.4915 17.0234 14.0526 17.2408C13.6179 17.4581 13.2749 17.7564 13.0234 18.1357C12.7763 18.5149 12.6548 18.9517 12.6591 19.446C12.6548 19.9148 12.7678 20.3239 12.9979 20.6733C13.2322 21.0227 13.5668 21.2933 14.0014 21.4851C14.4361 21.6768 14.9517 21.7727 15.5483 21.7727ZM15.5483 15.5597C16.017 15.5597 16.4325 15.4659 16.7947 15.2784C17.1612 15.0909 17.4489 14.8288 17.6577 14.4922C17.8665 14.1555 17.973 13.7614 17.9773 13.3097C17.973 12.8665 17.8686 12.4808 17.6641 12.1527C17.4595 11.8203 17.1761 11.5646 16.8139 11.3857C16.4517 11.2024 16.0298 11.1108 15.5483 11.1108C15.0582 11.1108 14.63 11.2024 14.2635 11.3857C13.897 11.5646 13.6136 11.8203 13.4134 12.1527C13.2131 12.4808 13.1151 12.8665 13.1193 13.3097C13.1151 13.7614 13.2152 14.1555 13.4197 14.4922C13.6286 14.8288 13.9162 15.0909 14.2827 15.2784C14.6491 15.4659 15.071 15.5597 15.5483 15.5597Z" fill="white"/>
</svg>
