<svg width="32" height="32" viewBox="0 0 32 32" fill="none" xmlns="http://www.w3.org/2000/svg">
<rect width="32" height="32" rx="16" fill="#4BAF4F"/>
<path d="M11.3551 23V21.8494L15.6761 17.1193C16.1832 16.5653 16.6009 16.0838 16.929 15.6747C17.2571 15.2614 17.5 14.8736 17.6577 14.5114C17.8196 14.1449 17.9006 13.7614 17.9006 13.3608C17.9006 12.9006 17.7898 12.5021 17.5682 12.1655C17.3509 11.8288 17.0526 11.5689 16.6733 11.3857C16.294 11.2024 15.8679 11.1108 15.3949 11.1108C14.892 11.1108 14.4531 11.2152 14.0781 11.424C13.7074 11.6286 13.4197 11.9162 13.2152 12.2869C13.0149 12.6577 12.9148 13.0923 12.9148 13.5909H11.4062C11.4062 12.8239 11.5831 12.1506 11.9368 11.571C12.2905 10.9915 12.772 10.5398 13.3814 10.2159C13.995 9.89204 14.6832 9.73011 15.446 9.73011C16.2131 9.73011 16.8928 9.89204 17.4851 10.2159C18.0774 10.5398 18.5419 10.9766 18.8786 11.5263C19.2152 12.076 19.3835 12.6875 19.3835 13.3608C19.3835 13.8423 19.2962 14.3132 19.1214 14.7734C18.951 15.2294 18.6527 15.7386 18.2266 16.3011C17.8047 16.8594 17.2188 17.5412 16.4688 18.3466L13.5284 21.4915V21.5938H19.6136V23H11.3551Z" fill="white"/>
</svg>
