<svg width="32" height="32" viewBox="0 0 32 32" fill="none" xmlns="http://www.w3.org/2000/svg">
<rect width="32" height="32" rx="16" fill="#0572B9"/>
<path d="M15.7784 23.179C14.9347 23.179 14.1825 23.0341 13.522 22.7443C12.8658 22.4545 12.3438 22.0518 11.956 21.5362C11.5724 21.0163 11.3636 20.4134 11.3295 19.7273H12.9403C12.9744 20.1491 13.1193 20.5135 13.375 20.8203C13.6307 21.1229 13.9652 21.3572 14.3786 21.5234C14.7919 21.6896 15.25 21.7727 15.7528 21.7727C16.3153 21.7727 16.8139 21.6747 17.2486 21.4787C17.6832 21.2827 18.0241 21.0099 18.2713 20.6605C18.5185 20.3111 18.642 19.9062 18.642 19.446C18.642 18.9645 18.5227 18.5405 18.2841 18.174C18.0455 17.8033 17.696 17.5135 17.2358 17.3047C16.7756 17.0959 16.2131 16.9915 15.5483 16.9915H14.5V15.5852H15.5483C16.0682 15.5852 16.5241 15.4915 16.9162 15.304C17.3125 15.1165 17.6214 14.8523 17.843 14.5114C18.0689 14.1705 18.1818 13.7699 18.1818 13.3097C18.1818 12.8665 18.0838 12.4808 17.8878 12.1527C17.6918 11.8246 17.4148 11.5689 17.0568 11.3857C16.7031 11.2024 16.2855 11.1108 15.804 11.1108C15.3523 11.1108 14.9261 11.1939 14.5256 11.3601C14.1293 11.522 13.8054 11.7585 13.554 12.0696C13.3026 12.3764 13.1662 12.7472 13.1449 13.1818H11.6108C11.6364 12.4957 11.843 11.8949 12.2308 11.3793C12.6186 10.8594 13.1257 10.4545 13.7521 10.1648C14.3828 9.875 15.0753 9.73011 15.8295 9.73011C16.6392 9.73011 17.3338 9.89418 17.9134 10.2223C18.4929 10.5462 18.9382 10.9744 19.2493 11.5071C19.5604 12.0398 19.7159 12.6151 19.7159 13.233C19.7159 13.9702 19.522 14.5987 19.1342 15.1186C18.7507 15.6385 18.2287 15.9986 17.5682 16.1989V16.3011C18.3949 16.4375 19.0405 16.7891 19.505 17.3558C19.9695 17.9183 20.2017 18.6151 20.2017 19.446C20.2017 20.1577 20.0078 20.7969 19.62 21.3636C19.2365 21.9261 18.7124 22.3693 18.0476 22.6932C17.3828 23.017 16.6264 23.179 15.7784 23.179Z" fill="white"/>
</svg>
