<svg width="32" height="32" viewBox="0 0 32 32" fill="none" xmlns="http://www.w3.org/2000/svg">
<rect width="32" height="32" rx="16" fill="#BED12F"/>
<path d="M11.9574 9.90909V23H10.3722V11.571H10.2955L7.09943 13.6932V12.0824L10.3722 9.90909H11.9574ZM19.9922 23.179C19.0291 23.179 18.2088 22.9169 17.5312 22.3928C16.8537 21.8643 16.3359 21.0994 15.978 20.098C15.62 19.0923 15.4411 17.8778 15.4411 16.4545C15.4411 15.0398 15.62 13.8317 15.978 12.8303C16.3402 11.8246 16.8601 11.0575 17.5376 10.5291C18.2195 9.99645 19.0376 9.73011 19.9922 9.73011C20.9467 9.73011 21.7628 9.99645 22.4403 10.5291C23.1222 11.0575 23.642 11.8246 24 12.8303C24.3622 13.8317 24.5433 15.0398 24.5433 16.4545C24.5433 17.8778 24.3643 19.0923 24.0064 20.098C23.6484 21.0994 23.1307 21.8643 22.4531 22.3928C21.7756 22.9169 20.9553 23.179 19.9922 23.179ZM19.9922 21.7727C20.9467 21.7727 21.6882 21.3125 22.2166 20.392C22.745 19.4716 23.0092 18.1591 23.0092 16.4545C23.0092 15.321 22.8878 14.3558 22.6449 13.5589C22.4063 12.7621 22.0611 12.1548 21.6094 11.7372C21.1619 11.3196 20.6229 11.1108 19.9922 11.1108C19.0462 11.1108 18.3068 11.5774 17.7741 12.5107C17.2415 13.4396 16.9751 14.7543 16.9751 16.4545C16.9751 17.5881 17.0945 18.5511 17.3331 19.3438C17.5717 20.1364 17.9148 20.7393 18.3622 21.1527C18.8139 21.5661 19.3572 21.7727 19.9922 21.7727Z" fill="white"/>
</svg>
