<svg width="32" height="32" viewBox="0 0 32 32" fill="none" xmlns="http://www.w3.org/2000/svg">
<rect width="32" height="32" rx="16" fill="#89643F"/>
<path d="M15.446 23.179C14.696 23.179 14.0206 23.0298 13.4197 22.7315C12.8189 22.4332 12.3374 22.0241 11.9751 21.5043C11.6129 20.9844 11.4148 20.392 11.3807 19.7273H12.9148C12.9744 20.3196 13.2429 20.8097 13.7202 21.1974C14.2017 21.581 14.777 21.7727 15.446 21.7727C15.983 21.7727 16.4602 21.647 16.8778 21.3956C17.2997 21.1442 17.63 20.799 17.8686 20.3601C18.1115 19.9169 18.233 19.4162 18.233 18.858C18.233 18.2869 18.1072 17.7777 17.8558 17.3303C17.6087 16.8786 17.2678 16.5227 16.8331 16.2628C16.3984 16.0028 15.902 15.8707 15.3438 15.8665C14.9432 15.8622 14.532 15.924 14.1101 16.0518C13.6882 16.1754 13.3409 16.3352 13.0682 16.5312L11.5852 16.3523L12.3778 9.90909H19.179V11.3153H13.7074L13.2472 15.1761H13.3239C13.5923 14.9631 13.929 14.7862 14.3338 14.6456C14.7386 14.505 15.1605 14.4347 15.5994 14.4347C16.4006 14.4347 17.1143 14.6264 17.7408 15.0099C18.3714 15.3892 18.8658 15.9091 19.2237 16.5696C19.5859 17.2301 19.767 17.9844 19.767 18.8324C19.767 19.6676 19.5795 20.4134 19.2045 21.0696C18.8338 21.7216 18.3224 22.2372 17.6705 22.6165C17.0185 22.9915 16.277 23.179 15.446 23.179Z" fill="white"/>
</svg>
